<mxfile host="app.diagrams.net" modified="2024-02-10T14:56:20.093Z" agent="Mozilla/5.0 (Windows NT 10.0; Win64; x64) AppleWebKit/537.36 (KHTML, like Gecko) Chrome/121.0.0.0 Safari/537.36" etag="1YcLqiA3DR4J4RkdOCDi" version="23.0.1" type="github">
  <diagram name="Page-1" id="Ipy-OVUvD7OQ4Gf299zH">
    <mxGraphModel dx="1750" dy="550" grid="1" gridSize="10" guides="1" tooltips="1" connect="1" arrows="1" fold="1" page="1" pageScale="1" pageWidth="850" pageHeight="1100" math="0" shadow="0">
      <root>
        <mxCell id="0" />
        <mxCell id="1" parent="0" />
        <mxCell id="gTNF117qqu3jYPDjDl4--1" value="&lt;i&gt;BaseActivity&lt;/i&gt;" style="swimlane;fontStyle=0;childLayout=stackLayout;horizontal=1;startSize=30;horizontalStack=0;resizeParent=1;resizeParentMax=0;resizeLast=0;collapsible=1;marginBottom=0;whiteSpace=wrap;html=1;" vertex="1" parent="1">
          <mxGeometry x="300" y="100" width="180" height="130" as="geometry" />
        </mxCell>
        <mxCell id="gTNF117qqu3jYPDjDl4--2" value="+ inputViews : Map&lt;br&gt;+ inputButtons : Map" style="text;strokeColor=none;fillColor=none;align=left;verticalAlign=middle;spacingLeft=4;spacingRight=4;overflow=hidden;points=[[0,0.5],[1,0.5]];portConstraint=eastwest;rotatable=0;whiteSpace=wrap;html=1;" vertex="1" parent="gTNF117qqu3jYPDjDl4--1">
          <mxGeometry y="30" width="180" height="30" as="geometry" />
        </mxCell>
        <mxCell id="gTNF117qqu3jYPDjDl4--3" value="+ initializeAssets()&lt;br&gt;+ initializeInputViews()&lt;br style=&quot;--tw-border-spacing-x: 0; --tw-border-spacing-y: 0; --tw-translate-x: 0; --tw-translate-y: 0; --tw-rotate: 0; --tw-skew-x: 0; --tw-skew-y: 0; --tw-scale-x: 1; --tw-scale-y: 1; --tw-pan-x: ; --tw-pan-y: ; --tw-pinch-zoom: ; --tw-scroll-snap-strictness: proximity; --tw-gradient-from-position: ; --tw-gradient-via-position: ; --tw-gradient-to-position: ; --tw-ordinal: ; --tw-slashed-zero: ; --tw-numeric-figure: ; --tw-numeric-spacing: ; --tw-numeric-fraction: ; --tw-ring-inset: ; --tw-ring-offset-width: 0px; --tw-ring-offset-color: #fff; --tw-ring-color: rgb(59 130 246 / .5); --tw-ring-offset-shadow: 0 0 #0000; --tw-ring-shadow: 0 0 #0000; --tw-shadow: 0 0 #0000; --tw-shadow-colored: 0 0 #0000; --tw-blur: ; --tw-brightness: ; --tw-contrast: ; --tw-grayscale: ; --tw-hue-rotate: ; --tw-invert: ; --tw-saturate: ; --tw-sepia: ; --tw-drop-shadow: ; --tw-backdrop-blur: ; --tw-backdrop-brightness: ; --tw-backdrop-contrast: ; --tw-backdrop-grayscale: ; --tw-backdrop-hue-rotate: ; --tw-backdrop-invert: ; --tw-backdrop-opacity: ; --tw-backdrop-saturate: ; --tw-backdrop-sepia: ; border-color: var(--border-color);&quot;&gt;+ initializeInputButtons()&lt;br style=&quot;--tw-border-spacing-x: 0; --tw-border-spacing-y: 0; --tw-translate-x: 0; --tw-translate-y: 0; --tw-rotate: 0; --tw-skew-x: 0; --tw-skew-y: 0; --tw-scale-x: 1; --tw-scale-y: 1; --tw-pan-x: ; --tw-pan-y: ; --tw-pinch-zoom: ; --tw-scroll-snap-strictness: proximity; --tw-gradient-from-position: ; --tw-gradient-via-position: ; --tw-gradient-to-position: ; --tw-ordinal: ; --tw-slashed-zero: ; --tw-numeric-figure: ; --tw-numeric-spacing: ; --tw-numeric-fraction: ; --tw-ring-inset: ; --tw-ring-offset-width: 0px; --tw-ring-offset-color: #fff; --tw-ring-color: rgb(59 130 246 / .5); --tw-ring-offset-shadow: 0 0 #0000; --tw-ring-shadow: 0 0 #0000; --tw-shadow: 0 0 #0000; --tw-shadow-colored: 0 0 #0000; --tw-blur: ; --tw-brightness: ; --tw-contrast: ; --tw-grayscale: ; --tw-hue-rotate: ; --tw-invert: ; --tw-saturate: ; --tw-sepia: ; --tw-drop-shadow: ; --tw-backdrop-blur: ; --tw-backdrop-brightness: ; --tw-backdrop-contrast: ; --tw-backdrop-grayscale: ; --tw-backdrop-hue-rotate: ; --tw-backdrop-invert: ; --tw-backdrop-opacity: ; --tw-backdrop-saturate: ; --tw-backdrop-sepia: ; border-color: var(--border-color);&quot;&gt;+ buttonClickedListener()&amp;nbsp;" style="text;strokeColor=default;fillColor=none;align=left;verticalAlign=middle;spacingLeft=4;spacingRight=4;overflow=hidden;points=[[0,0.5],[1,0.5]];portConstraint=eastwest;rotatable=0;whiteSpace=wrap;html=1;spacing=5;spacingTop=0;spacingBottom=2;" vertex="1" parent="gTNF117qqu3jYPDjDl4--1">
          <mxGeometry y="60" width="180" height="70" as="geometry" />
        </mxCell>
        <mxCell id="gTNF117qqu3jYPDjDl4--11" style="edgeStyle=orthogonalEdgeStyle;rounded=0;orthogonalLoop=1;jettySize=auto;html=1;" edge="1" parent="1" source="gTNF117qqu3jYPDjDl4--8" target="gTNF117qqu3jYPDjDl4--3">
          <mxGeometry relative="1" as="geometry">
            <mxPoint x="320" y="230" as="targetPoint" />
          </mxGeometry>
        </mxCell>
        <mxCell id="gTNF117qqu3jYPDjDl4--8" value="MainActivity" style="swimlane;fontStyle=0;childLayout=stackLayout;horizontal=1;startSize=30;horizontalStack=0;resizeParent=1;resizeParentMax=0;resizeLast=0;collapsible=1;marginBottom=0;whiteSpace=wrap;html=1;" vertex="1" parent="1">
          <mxGeometry x="70" y="290" width="260" height="100" as="geometry" />
        </mxCell>
        <mxCell id="gTNF117qqu3jYPDjDl4--10" value="- createAccountButtonClicked()&lt;br&gt;- submitButtonClicked()&lt;br&gt;- forgotPasswordButtonClicked()" style="text;strokeColor=default;fillColor=none;align=left;verticalAlign=middle;spacingLeft=4;spacingRight=4;overflow=hidden;points=[[0,0.5],[1,0.5]];portConstraint=eastwest;rotatable=0;whiteSpace=wrap;html=1;spacing=5;spacingTop=0;spacingBottom=2;" vertex="1" parent="gTNF117qqu3jYPDjDl4--8">
          <mxGeometry y="30" width="260" height="70" as="geometry" />
        </mxCell>
        <mxCell id="gTNF117qqu3jYPDjDl4--15" style="edgeStyle=orthogonalEdgeStyle;rounded=0;orthogonalLoop=1;jettySize=auto;html=1;entryX=0.77;entryY=0.995;entryDx=0;entryDy=0;entryPerimeter=0;" edge="1" parent="1" source="gTNF117qqu3jYPDjDl4--12" target="gTNF117qqu3jYPDjDl4--3">
          <mxGeometry relative="1" as="geometry">
            <mxPoint x="440" y="250" as="targetPoint" />
          </mxGeometry>
        </mxCell>
        <mxCell id="gTNF117qqu3jYPDjDl4--12" value="MainScreen" style="swimlane;fontStyle=0;childLayout=stackLayout;horizontal=1;startSize=30;horizontalStack=0;resizeParent=1;resizeParentMax=0;resizeLast=0;collapsible=1;marginBottom=0;whiteSpace=wrap;html=1;" vertex="1" parent="1">
          <mxGeometry x="360" y="360" width="290" height="160" as="geometry" />
        </mxCell>
        <mxCell id="gTNF117qqu3jYPDjDl4--13" value="- recentMessageList : List&lt;br&gt;- recyclerView : RecyclerView&lt;br&gt;- recentMessageAdapter : RecentMessageAdapter" style="text;strokeColor=none;fillColor=none;align=left;verticalAlign=middle;spacingLeft=4;spacingRight=4;overflow=hidden;points=[[0,0.5],[1,0.5]];portConstraint=eastwest;rotatable=0;whiteSpace=wrap;html=1;" vertex="1" parent="gTNF117qqu3jYPDjDl4--12">
          <mxGeometry y="30" width="290" height="60" as="geometry" />
        </mxCell>
        <mxCell id="gTNF117qqu3jYPDjDl4--14" value="- connectToFirebase()&amp;nbsp;&lt;br&gt;- backButtonListener()&amp;nbsp;&lt;br&gt;- addButtonListener()&amp;nbsp;&lt;br&gt;- profileButtonListener()&amp;nbsp;&amp;nbsp;" style="text;strokeColor=default;fillColor=none;align=left;verticalAlign=middle;spacingLeft=4;spacingRight=4;overflow=hidden;points=[[0,0.5],[1,0.5]];portConstraint=eastwest;rotatable=0;whiteSpace=wrap;html=1;spacing=5;spacingTop=0;spacingBottom=2;" vertex="1" parent="gTNF117qqu3jYPDjDl4--12">
          <mxGeometry y="90" width="290" height="70" as="geometry" />
        </mxCell>
        <mxCell id="gTNF117qqu3jYPDjDl4--17" value="CreateAccountScreen" style="swimlane;fontStyle=0;childLayout=stackLayout;horizontal=1;startSize=30;horizontalStack=0;resizeParent=1;resizeParentMax=0;resizeLast=0;collapsible=1;marginBottom=0;whiteSpace=wrap;html=1;" vertex="1" parent="1">
          <mxGeometry x="680" y="240" width="290" height="140" as="geometry" />
        </mxCell>
        <mxCell id="gTNF117qqu3jYPDjDl4--18" value="- allowToMainScreen : Boolean" style="text;strokeColor=none;fillColor=none;align=left;verticalAlign=middle;spacingLeft=4;spacingRight=4;overflow=hidden;points=[[0,0.5],[1,0.5]];portConstraint=eastwest;rotatable=0;whiteSpace=wrap;html=1;" vertex="1" parent="gTNF117qqu3jYPDjDl4--17">
          <mxGeometry y="30" width="290" height="40" as="geometry" />
        </mxCell>
        <mxCell id="gTNF117qqu3jYPDjDl4--19" value="- transferToMainScreen()&amp;nbsp;&lt;br&gt;- backButtonClicked()&amp;nbsp;&lt;br&gt;- isValidCredentials()&amp;nbsp;&lt;br&gt;- addCredentialsToDatabase()&amp;nbsp;" style="text;strokeColor=default;fillColor=none;align=left;verticalAlign=middle;spacingLeft=4;spacingRight=4;overflow=hidden;points=[[0,0.5],[1,0.5]];portConstraint=eastwest;rotatable=0;whiteSpace=wrap;html=1;spacing=5;spacingTop=0;spacingBottom=2;" vertex="1" parent="gTNF117qqu3jYPDjDl4--17">
          <mxGeometry y="70" width="290" height="70" as="geometry" />
        </mxCell>
        <mxCell id="gTNF117qqu3jYPDjDl4--20" style="edgeStyle=orthogonalEdgeStyle;rounded=0;orthogonalLoop=1;jettySize=auto;html=1;entryX=1.005;entryY=0.255;entryDx=0;entryDy=0;entryPerimeter=0;" edge="1" parent="1" source="gTNF117qqu3jYPDjDl4--17" target="gTNF117qqu3jYPDjDl4--3">
          <mxGeometry relative="1" as="geometry">
            <Array as="points">
              <mxPoint x="700" y="178" />
            </Array>
          </mxGeometry>
        </mxCell>
        <mxCell id="gTNF117qqu3jYPDjDl4--25" style="edgeStyle=orthogonalEdgeStyle;rounded=0;orthogonalLoop=1;jettySize=auto;html=1;entryX=-0.021;entryY=0.005;entryDx=0;entryDy=0;entryPerimeter=0;" edge="1" parent="1" source="gTNF117qqu3jYPDjDl4--22" target="gTNF117qqu3jYPDjDl4--2">
          <mxGeometry relative="1" as="geometry">
            <mxPoint x="25" y="130" as="targetPoint" />
            <Array as="points">
              <mxPoint x="25" y="281" />
              <mxPoint x="26" y="281" />
              <mxPoint x="26" y="130" />
            </Array>
          </mxGeometry>
        </mxCell>
        <mxCell id="gTNF117qqu3jYPDjDl4--22" value="ForgotPassword" style="swimlane;fontStyle=0;childLayout=stackLayout;horizontal=1;startSize=30;horizontalStack=0;resizeParent=1;resizeParentMax=0;resizeLast=0;collapsible=1;marginBottom=0;whiteSpace=wrap;html=1;" vertex="1" parent="1">
          <mxGeometry x="-120" y="430" width="290" height="150" as="geometry" />
        </mxCell>
        <mxCell id="gTNF117qqu3jYPDjDl4--23" value="- confirmUsernameButton : AppCompatButton&lt;br&gt;- AppCompatButton : backToLoginButton" style="text;strokeColor=none;fillColor=none;align=left;verticalAlign=middle;spacingLeft=4;spacingRight=4;overflow=hidden;points=[[0,0.5],[1,0.5]];portConstraint=eastwest;rotatable=0;whiteSpace=wrap;html=1;" vertex="1" parent="gTNF117qqu3jYPDjDl4--22">
          <mxGeometry y="30" width="290" height="60" as="geometry" />
        </mxCell>
        <mxCell id="gTNF117qqu3jYPDjDl4--24" value="- findUserEmail()&amp;nbsp;&lt;br&gt;- isValidUsername() : Boolean&lt;br&gt;- usernameButtonListener()&amp;nbsp;" style="text;strokeColor=default;fillColor=none;align=left;verticalAlign=middle;spacingLeft=4;spacingRight=4;overflow=hidden;points=[[0,0.5],[1,0.5]];portConstraint=eastwest;rotatable=0;whiteSpace=wrap;html=1;spacing=5;spacingTop=0;spacingBottom=2;" vertex="1" parent="gTNF117qqu3jYPDjDl4--22">
          <mxGeometry y="90" width="290" height="60" as="geometry" />
        </mxCell>
      </root>
    </mxGraphModel>
  </diagram>
</mxfile>
